<svg enable-background="new 0 0 256 256" height="512" viewBox="0 0 256 256" width="512" xmlns="http://www.w3.org/2000/svg"><path d="m181.411 16.303h-133.322c-6.099 0-11.089 4.99-11.089 11.089v201.216c0 6.099 4.99 11.089 11.089 11.089h39.411v-115.408c0-5.406 4.383-9.789 9.789-9.789h85.422c5.406 0 9.789 4.383 9.789 9.789v-96.897c0-6.099-4.99-11.089-11.089-11.089z" fill="#edf4fc"/><path d="m57.5 16.303h-9.411c-6.099 0-11.089 4.99-11.089 11.089v201.216c0 6.099 4.99 11.089 11.089 11.089h9.411z" fill="#5290db"/><path d="m226.978 190.84h-14.224c-2.313 0-4.188-1.875-4.188-4.188v-128.57c0-2.313 1.875-4.188 4.188-4.188h14.224c2.313 0 4.188 1.875 4.188 4.188v128.57c0 2.313-1.875 4.188-4.188 4.188z" fill="#5290db"/><path d="m231.166 54.213v18.264h9.18v-6.667c0-5.64-3.918-10.36-9.18-11.597z" fill="#3a70bf"/><path d="m219.866 40.568c-4.854 0-8.789 3.935-8.789 8.789v4.889c.514-.225 1.08-.352 1.678-.352h14.224c.597 0 1.163.127 1.677.352v-4.889c0-4.854-3.935-8.789-8.79-8.789z" fill="#3a70bf"/><path d="m226.978 190.84h-14.224c-.597 0-1.164-.127-1.678-.352v13.828h17.579v-13.828c-.513.225-1.08.352-1.677.352z" fill="#f5c84c"/><path d="m211.077 204.317 6.893 17.075c.689 1.706 3.104 1.706 3.792 0l6.893-17.075z" fill="#f5c84c"/><path d="m110.075 70.022h-7.333c-.747 0-1.352.605-1.352 1.352v25.975c0 .747.605 1.352 1.352 1.352h7.333c.747 0 1.352-.605 1.352-1.352v-25.975c.001-.747-.605-1.352-1.352-1.352z" fill="#f5c84c"/><path d="m130.47 58.55h-7.333c-.747 0-1.352.605-1.352 1.352v37.446c0 .747.605 1.352 1.352 1.352h7.333c.747 0 1.352-.605 1.352-1.352v-37.445c0-.747-.606-1.353-1.352-1.353z" fill="#f5c84c"/><path d="m150.864 70.022h-7.333c-.747 0-1.352.605-1.352 1.352v25.975c0 .747.605 1.352 1.352 1.352h7.333c.747 0 1.352-.605 1.352-1.352v-25.975c0-.747-.605-1.352-1.352-1.352z" fill="#f5c84c"/><path d="m171.258 42.299h-7.333c-.747 0-1.352.605-1.352 1.352v53.698c0 .747.605 1.352 1.352 1.352h7.333c.747 0 1.352-.605 1.352-1.352v-53.698c0-.747-.605-1.352-1.352-1.352z" fill="#f5c84c"/><path d="m101.39 83.327v14.022c0 .747.605 1.352 1.352 1.352h7.333c.747 0 1.352-.605 1.352-1.352v-14.022z" fill="#fc657e"/><path d="m121.784 76.75v20.599c0 .747.605 1.352 1.352 1.352h7.333c.747 0 1.352-.605 1.352-1.352v-20.599z" fill="#fc657e"/><path d="m142.178 83.327v14.022c0 .747.605 1.352 1.352 1.352h7.333c.747 0 1.352-.605 1.352-1.352v-14.022z" fill="#fc657e"/><path d="m162.572 67.433v29.916c0 .747.605 1.352 1.352 1.352h7.333c.747 0 1.352-.605 1.352-1.352v-29.916z" fill="#fc657e"/><path d="m182.711 114.5h-85.422c-5.406 0-9.789 4.383-9.789 9.789v119.422c0 5.406 4.383 9.789 9.789 9.789h85.422c5.406 0 9.789-4.383 9.789-9.789v-119.422c0-5.406-4.383-9.789-9.789-9.789z" fill="#29589f"/><g fill="#5290db"><circle cx="107.381" cy="187.449" r="7.037"/><circle cx="128.962" cy="187.449" r="7.037"/><circle cx="150.543" cy="187.449" r="7.037"/><circle cx="173.543" cy="187.449" r="7.037"/><circle cx="107.381" cy="209.5" r="7.037"/><circle cx="128.962" cy="209.5" r="7.037"/><circle cx="150.543" cy="209.5" r="7.037"/><circle cx="107.381" cy="231.551" r="7.037"/><circle cx="128.962" cy="231.551" r="7.037"/><circle cx="150.543" cy="231.551" r="7.037"/></g><path d="m173.5 202.5c-3.866 0-7 3.134-7 7v22c0 3.866 3.134 7 7 7s7-3.134 7-7v-22c0-3.866-3.134-7-7-7z" fill="#fc657e"/><path d="m180.247 133.101h-79.994c-1.244 0-2.253 1.009-2.253 2.253v31.994c0 1.244 1.009 2.253 2.253 2.253h79.994c1.244 0 2.253-1.009 2.253-2.253 0-12.252 0-20.737 0-31.994 0-1.244-1.009-2.253-2.253-2.253z" fill="#f5c84c"/><path d="m15.553 139.627h-2.07v2.07c0 1.549-1.256 2.805-2.805 2.805s-2.805-1.256-2.805-2.805v-2.07h-2.068c-1.549 0-2.805-1.256-2.805-2.805s1.256-2.805 2.805-2.805h2.069v-2.07c0-1.549 1.256-2.805 2.805-2.805s2.805 1.256 2.805 2.805v2.07h2.07c1.549 0 2.805 1.256 2.805 2.805-.002 1.549-1.257 2.805-2.806 2.805z" fill="#3caadc"/><path d="m198.712 5.636c-1.878.339-3.405-1.065-3.405-2.79 0-1.504 1.203-2.846 2.846-2.846 1.541 0 2.847 1.275 2.847 2.846 0 1.363-.986 2.544-2.288 2.79z" fill="#ef4460"/><path d="m250.712 147.636c-1.844.333-3.405-1.02-3.405-2.79 0-1.551 1.251-2.846 2.846-2.846 1.562 0 2.846 1.273 2.846 2.846.001 1.355-.973 2.542-2.287 2.79z" fill="#70d6f9"/><path d="m12.596 164.636c-1.378-.26-2.289-1.494-2.289-2.79 0-1.695 1.486-3.126 3.405-2.79 1.288.243 2.288 1.418 2.288 2.79 0 1.697-1.527 3.14-3.404 2.79z" fill="#ef4460"/><path d="m228.964 19.364c-4.055.755-7.25 3.886-8.021 7.858-.039.2-.317.2-.356 0-.771-3.972-3.967-7.103-8.021-7.858-.204-.038-.204-.311 0-.349 4.055-.755 7.25-3.886 8.021-7.858.039-.2.317-.2.356 0 .771 3.972 3.967 7.103 8.021 7.858.204.038.204.311 0 .349z" fill="#f5c84c"/><path d="m204.596 229.131c-1.369-.259-2.289-1.485-2.289-2.79 0-1.673 1.464-3.13 3.405-2.79 1.267.24 2.288 1.397 2.288 2.79 0 1.757-1.577 3.131-3.404 2.79z" fill="#87d147"/><path d="m46.333 40h-17c-1.381 0-2.5-1.119-2.5-2.5s1.119-2.5 2.5-2.5h17c1.381 0 2.5 1.119 2.5 2.5s-1.119 2.5-2.5 2.5z"/><path d="m46.333 56.273h-17c-1.381 0-2.5-1.119-2.5-2.5s1.119-2.5 2.5-2.5h17c1.381 0 2.5 1.119 2.5 2.5s-1.119 2.5-2.5 2.5z"/><path d="m46.333 72.545h-17c-1.381 0-2.5-1.119-2.5-2.5s1.119-2.5 2.5-2.5h17c1.381 0 2.5 1.119 2.5 2.5s-1.119 2.5-2.5 2.5z"/><path d="m46.333 88.818h-17c-1.381 0-2.5-1.119-2.5-2.5s1.119-2.5 2.5-2.5h17c1.381 0 2.5 1.119 2.5 2.5s-1.119 2.5-2.5 2.5z"/><path d="m46.333 105.091h-17c-1.381 0-2.5-1.119-2.5-2.5s1.119-2.5 2.5-2.5h17c1.381 0 2.5 1.119 2.5 2.5s-1.119 2.5-2.5 2.5z"/><path d="m46.333 121.364h-17c-1.381 0-2.5-1.119-2.5-2.5s1.119-2.5 2.5-2.5h17c1.381 0 2.5 1.119 2.5 2.5s-1.119 2.5-2.5 2.5z"/><path d="m46.333 137.636h-17c-1.381 0-2.5-1.119-2.5-2.5s1.119-2.5 2.5-2.5h17c1.381 0 2.5 1.119 2.5 2.5s-1.119 2.5-2.5 2.5z"/><path d="m46.333 153.909h-17c-1.381 0-2.5-1.119-2.5-2.5s1.119-2.5 2.5-2.5h17c1.381 0 2.5 1.119 2.5 2.5s-1.119 2.5-2.5 2.5z"/><path d="m46.333 170.182h-17c-1.381 0-2.5-1.119-2.5-2.5s1.119-2.5 2.5-2.5h17c1.381 0 2.5 1.119 2.5 2.5s-1.119 2.5-2.5 2.5z"/><path d="m46.333 186.455h-17c-1.381 0-2.5-1.119-2.5-2.5s1.119-2.5 2.5-2.5h17c1.381 0 2.5 1.119 2.5 2.5s-1.119 2.5-2.5 2.5z"/><path d="m46.333 202.727h-17c-1.381 0-2.5-1.119-2.5-2.5s1.119-2.5 2.5-2.5h17c1.381 0 2.5 1.119 2.5 2.5s-1.119 2.5-2.5 2.5z"/><path d="m46.333 219h-17c-1.381 0-2.5-1.119-2.5-2.5s1.119-2.5 2.5-2.5h17c1.381 0 2.5 1.119 2.5 2.5s-1.119 2.5-2.5 2.5z"/><path d="m87.5 242.197h-39.411c-7.493 0-13.589-6.096-13.589-13.589v-201.216c0-7.493 6.096-13.589 13.589-13.589h133.322c7.493 0 13.589 6.096 13.589 13.589v96.897c0 1.381-1.119 2.5-2.5 2.5s-2.5-1.119-2.5-2.5c0-4.019-3.27-7.289-7.289-7.289h-85.422c-4.02 0-7.289 3.27-7.289 7.289v115.408c0 1.381-1.119 2.5-2.5 2.5zm-39.411-223.394c-4.736 0-8.589 3.853-8.589 8.589v201.216c0 4.736 3.853 8.589 8.589 8.589h36.911v-112.908c0-6.776 5.513-12.289 12.289-12.289h85.422c2.727 0 5.248.893 7.289 2.401v-87.009c0-4.736-3.853-8.589-8.589-8.589z"/><path d="m240.347 114.248h-2.344c-1.381 0-2.5-1.119-2.5-2.5 0-1.328 1.036-2.415 2.344-2.495v-43.444c0-5.191-4.224-9.415-9.416-9.415h-17.354c-1.381 0-2.5-1.119-2.5-2.5s1.119-2.5 2.5-2.5h17.354c7.949 0 14.416 6.467 14.416 14.415v45.938c0 1.381-1.119 2.501-2.5 2.501z"/><path d="m176.5 126h-8c-1.381 0-2.5-1.119-2.5-2.5s1.119-2.5 2.5-2.5h8c1.381 0 2.5 1.119 2.5 2.5s-1.119 2.5-2.5 2.5z"/><path d="m167.994 162.58h-6.851c-1.381 0-2.5-1.119-2.5-2.5s1.119-2.5 2.5-2.5h6.851c1.028 0 1.864-.836 1.864-1.864s-.836-1.864-1.864-1.864h-4.833c-3.785 0-6.864-3.079-6.864-6.864s3.079-6.864 6.864-6.864h7.73c1.381 0 2.5 1.119 2.5 2.5s-1.119 2.5-2.5 2.5h-7.73c-1.028 0-1.864.836-1.864 1.864s.836 1.864 1.864 1.864h4.833c3.785 0 6.864 3.079 6.864 6.864s-3.079 6.864-6.864 6.864z"/><path d="m165.578 165.565c-1.381 0-2.5-1.119-2.5-2.5v-23.427c0-1.381 1.119-2.5 2.5-2.5s2.5 1.119 2.5 2.5v23.427c0 1.381-1.119 2.5-2.5 2.5z"/><path d="m57.5 242.197h-9.411c-7.493 0-13.589-6.096-13.589-13.589v-201.216c0-7.493 6.096-13.589 13.589-13.589h9.411c1.381 0 2.5 1.119 2.5 2.5v223.395c0 1.38-1.119 2.499-2.5 2.499zm-9.411-223.394c-4.736 0-8.589 3.853-8.589 8.589v201.216c0 4.736 3.853 8.589 8.589 8.589h6.911v-218.394z"/><path d="m226.979 193.34h-14.224c-3.688 0-6.688-3-6.688-6.688v-128.57c0-3.688 3-6.688 6.688-6.688h14.224c3.688 0 6.688 3 6.688 6.688v128.57c-.001 3.688-3.001 6.688-6.688 6.688zm-14.224-136.946c-.931 0-1.688.757-1.688 1.688v128.57c0 .931.758 1.688 1.688 1.688h14.224c.931 0 1.688-.757 1.688-1.688v-128.57c0-.931-.757-1.688-1.688-1.688z"/><path d="m240.346 74.977h-9.18c-1.381 0-2.5-1.119-2.5-2.5v-18.264c0-.764.349-1.485.947-1.959.599-.475 1.382-.649 2.125-.474 6.54 1.537 11.107 7.306 11.107 14.029v6.667c.001 1.381-1.118 2.501-2.499 2.501zm-6.68-5h4.18v-4.167c0-3.236-1.619-6.133-4.18-7.835z"/><path d="m228.655 56.746c-.341 0-.683-.069-1.003-.21-.215-.094-.441-.142-.674-.142h-14.224c-.232 0-.46.048-.675.142-.771.339-1.663.266-2.371-.197-.706-.462-1.132-1.249-1.132-2.093v-4.889c0-6.225 5.064-11.29 11.289-11.29s11.289 5.064 11.289 11.29v4.889c0 .844-.426 1.631-1.132 2.093-.412.269-.888.407-1.367.407zm-15.078-5.352h12.578v-2.037c0-3.468-2.821-6.29-6.289-6.29s-6.289 2.821-6.289 6.29z"/><path d="m228.655 206.816h-17.578c-1.381 0-2.5-1.119-2.5-2.5v-13.828c0-.844.426-1.631 1.132-2.093.708-.462 1.601-.535 2.371-.197.215.094.442.142.675.142h14.224c.232 0 .459-.048.674-.142.77-.337 1.664-.265 2.371.197.706.462 1.132 1.249 1.132 2.093v13.828c-.001 1.381-1.12 2.5-2.501 2.5zm-15.078-5h12.578v-8.476h-12.578z"/><path d="m219.867 225.171c-1.863 0-3.518-1.116-4.215-2.844l-6.894-17.075c-.311-.771-.219-1.646.246-2.334s1.241-1.102 2.072-1.102h17.578c.831 0 1.607.413 2.072 1.102s.557 1.563.246 2.334l-6.893 17.075c-.695 1.728-2.35 2.844-4.212 2.844zm-5.085-18.355 5.084 12.593 5.084-12.593z"/><path d="m110.075 101.201h-7.333c-2.124 0-3.853-1.728-3.853-3.852v-25.974c0-2.125 1.729-3.853 3.853-3.853h7.333c2.124 0 3.853 1.728 3.853 3.853v25.975c0 2.123-1.729 3.851-3.853 3.851zm-6.185-5h5.038v-23.679h-5.038zm6.185-23.679h.01z"/><path d="m130.47 101.201h-7.333c-2.124 0-3.853-1.728-3.853-3.852v-37.446c0-2.125 1.729-3.853 3.853-3.853h7.333c2.124 0 3.853 1.728 3.853 3.853v37.446c-.001 2.124-1.729 3.852-3.853 3.852zm-6.186-5h5.038v-35.151h-5.038zm6.186-35.151h.01z"/><path d="m150.863 101.201h-7.333c-2.124 0-3.853-1.728-3.853-3.852v-25.974c0-2.125 1.729-3.853 3.853-3.853h7.333c2.124 0 3.853 1.728 3.853 3.853v25.975c0 2.123-1.729 3.851-3.853 3.851zm-6.185-5h5.038v-23.679h-5.038zm6.185-23.679h.01z"/><path d="m171.258 101.201h-7.333c-2.124 0-3.853-1.728-3.853-3.852v-53.698c0-2.124 1.729-3.852 3.853-3.852h7.333c2.124 0 3.853 1.728 3.853 3.852v53.698c-.001 2.124-1.729 3.852-3.853 3.852zm-6.186-5h5.038v-51.402h-5.038zm6.186-51.402h.01z"/><path d="m110.075 101.201h-7.333c-2.124 0-3.853-1.728-3.853-3.852v-14.022c0-1.381 1.119-2.5 2.5-2.5h10.038c1.381 0 2.5 1.119 2.5 2.5v14.022c.001 2.124-1.728 3.852-3.852 3.852zm-6.185-5h5.038v-10.374h-5.038z"/><path d="m130.47 101.201h-7.333c-2.124 0-3.853-1.728-3.853-3.852v-20.599c0-1.381 1.119-2.5 2.5-2.5h10.038c1.381 0 2.5 1.119 2.5 2.5v20.599c0 2.124-1.728 3.852-3.852 3.852zm-6.186-5h5.038v-16.951h-5.038z"/><path d="m150.863 101.201h-7.333c-2.124 0-3.853-1.728-3.853-3.852v-14.022c0-1.381 1.119-2.5 2.5-2.5h10.038c1.381 0 2.5 1.119 2.5 2.5v14.022c.001 2.124-1.728 3.852-3.852 3.852zm-6.185-5h5.038v-10.374h-5.038z"/><path d="m171.258 101.201h-7.333c-2.124 0-3.853-1.728-3.853-3.852v-29.916c0-1.381 1.119-2.5 2.5-2.5h10.038c1.381 0 2.5 1.119 2.5 2.5v29.916c0 2.124-1.728 3.852-3.852 3.852zm-6.186-5h5.038v-26.268h-5.038z"/><path d="m182.711 256h-85.422c-6.776 0-12.289-5.513-12.289-12.289v-119.422c0-6.776 5.513-12.289 12.289-12.289h85.422c6.776 0 12.289 5.513 12.289 12.289v119.422c0 6.776-5.513 12.289-12.289 12.289zm-85.422-139c-4.02 0-7.289 3.27-7.289 7.289v119.422c0 4.019 3.27 7.289 7.289 7.289h85.422c4.02 0 7.289-3.27 7.289-7.289v-119.422c0-4.019-3.27-7.289-7.289-7.289z"/><path d="m107.381 196.987c-5.259 0-9.537-4.278-9.537-9.537s4.278-9.538 9.537-9.538 9.537 4.278 9.537 9.538c0 5.258-4.278 9.537-9.537 9.537zm0-14.075c-2.502 0-4.537 2.036-4.537 4.538s2.035 4.537 4.537 4.537 4.537-2.035 4.537-4.537-2.035-4.538-4.537-4.538z"/><path d="m128.962 196.987c-5.259 0-9.537-4.278-9.537-9.537s4.278-9.538 9.537-9.538c5.26 0 9.538 4.278 9.538 9.538 0 5.258-4.278 9.537-9.538 9.537zm0-14.075c-2.502 0-4.537 2.036-4.537 4.538s2.035 4.537 4.537 4.537 4.538-2.035 4.538-4.537-2.036-4.538-4.538-4.538z"/><path d="m150.544 196.987c-5.26 0-9.538-4.278-9.538-9.537s4.278-9.538 9.538-9.538c5.259 0 9.537 4.278 9.537 9.538 0 5.258-4.278 9.537-9.537 9.537zm0-14.075c-2.502 0-4.538 2.036-4.538 4.538s2.036 4.537 4.538 4.537 4.537-2.035 4.537-4.537-2.035-4.538-4.537-4.538z"/><path d="m173.544 196.987c-5.26 0-9.538-4.278-9.538-9.537s4.278-9.538 9.538-9.538c5.259 0 9.537 4.278 9.537 9.538 0 5.258-4.278 9.537-9.537 9.537zm0-14.075c-2.502 0-4.538 2.036-4.538 4.538s2.036 4.537 4.538 4.537 4.537-2.035 4.537-4.537-2.035-4.538-4.537-4.538z"/><path d="m107.381 219.038c-5.259 0-9.537-4.278-9.537-9.538s4.278-9.538 9.537-9.538 9.537 4.278 9.537 9.538-4.278 9.538-9.537 9.538zm0-14.076c-2.502 0-4.537 2.036-4.537 4.538s2.035 4.538 4.537 4.538 4.537-2.036 4.537-4.538-2.035-4.538-4.537-4.538z"/><path d="m128.962 219.038c-5.259 0-9.537-4.278-9.537-9.538s4.278-9.538 9.537-9.538c5.26 0 9.538 4.278 9.538 9.538s-4.278 9.538-9.538 9.538zm0-14.076c-2.502 0-4.537 2.036-4.537 4.538s2.035 4.538 4.537 4.538 4.538-2.036 4.538-4.538-2.036-4.538-4.538-4.538z"/><path d="m150.544 219.038c-5.26 0-9.538-4.278-9.538-9.538s4.278-9.538 9.538-9.538c5.259 0 9.537 4.278 9.537 9.538s-4.278 9.538-9.537 9.538zm0-14.076c-2.502 0-4.538 2.036-4.538 4.538s2.036 4.538 4.538 4.538 4.537-2.036 4.537-4.538-2.035-4.538-4.537-4.538z"/><path d="m107.381 241.088c-5.259 0-9.537-4.278-9.537-9.538 0-5.259 4.278-9.537 9.537-9.537s9.537 4.278 9.537 9.537c0 5.26-4.278 9.538-9.537 9.538zm0-14.075c-2.502 0-4.537 2.035-4.537 4.537s2.035 4.538 4.537 4.538 4.537-2.036 4.537-4.538-2.035-4.537-4.537-4.537z"/><path d="m128.962 241.088c-5.259 0-9.537-4.278-9.537-9.538 0-5.259 4.278-9.537 9.537-9.537 5.26 0 9.538 4.278 9.538 9.537 0 5.26-4.278 9.538-9.538 9.538zm0-14.075c-2.502 0-4.537 2.035-4.537 4.537s2.035 4.538 4.537 4.538 4.538-2.036 4.538-4.538-2.036-4.537-4.538-4.537z"/><path d="m150.544 241.088c-5.26 0-9.538-4.278-9.538-9.538 0-5.259 4.278-9.537 9.538-9.537 5.259 0 9.537 4.278 9.537 9.537 0 5.26-4.278 9.538-9.537 9.538zm0-14.075c-2.502 0-4.538 2.035-4.538 4.537s2.036 4.538 4.538 4.538 4.537-2.036 4.537-4.538-2.035-4.537-4.537-4.537z"/><path d="m173.5 241c-5.238 0-9.5-4.262-9.5-9.5v-22c0-5.238 4.262-9.5 9.5-9.5s9.5 4.262 9.5 9.5v22c0 5.238-4.262 9.5-9.5 9.5zm0-36c-2.481 0-4.5 2.019-4.5 4.5v22c0 2.481 2.019 4.5 4.5 4.5s4.5-2.019 4.5-4.5v-22c0-2.481-2.019-4.5-4.5-4.5z"/><path d="m180.247 172.101h-79.994c-2.621 0-4.753-2.132-4.753-4.753v-31.994c0-2.621 2.132-4.753 4.753-4.753h79.994c2.621 0 4.753 2.132 4.753 4.753v31.994c0 2.621-2.132 4.753-4.753 4.753zm-79.747-5h79.5v-31.5h-79.5zm79.747-31.5h.01z"/></svg>